<svg width="26" height="27" viewBox="0 0 26 27" fill="none" xmlns="http://www.w3.org/2000/svg">
<path d="M3.48509 17.9825H9.46511H9.46551V18.2325C10.2066 18.2313 10.9302 18.4426 11.5519 18.8381L3.48509 17.9825ZM3.48509 17.9825V6.02168H9.46551C10.0189 6.02168 10.5495 6.2415 10.9408 6.63278C11.3321 7.02406 11.5519 7.55474 11.5519 8.10809V18.5454L3.48509 17.9825ZM15.6963 17.9825H21.6763V6.02168H15.6959C15.1426 6.02168 14.6119 6.2415 14.2206 6.63278C13.8293 7.02406 13.6095 7.55474 13.6095 8.10809V18.5454C14.2402 18.1771 14.9602 17.9813 15.6963 17.9825ZM15.6963 17.9825L15.6959 18.2325M21.9263 3.96408H15.6959C15.0526 3.96408 14.4181 4.11387 13.8427 4.40158C13.3621 4.64187 12.9337 4.97286 12.5807 5.37527C12.2277 4.97286 11.7994 4.64187 11.3188 4.40158C10.7433 4.11387 10.1088 3.96408 9.46551 3.96408H3.23509C2.75569 3.96408 2.29592 4.15452 1.95693 4.49352C1.61793 4.83251 1.42749 5.29228 1.42749 5.77168V18.2325C1.42749 18.7119 1.61793 19.1717 1.95693 19.5107C2.29592 19.8497 2.75569 20.0401 3.23509 20.0401H9.46551C10.0189 20.0401 10.5495 20.2599 10.9408 20.6512C11.3321 21.0425 11.5519 21.5732 11.5519 22.1265C11.5519 22.3994 11.6603 22.6611 11.8532 22.854C12.0462 23.0469 12.3079 23.1553 12.5807 23.1553C12.8536 23.1553 13.1153 23.0469 13.3082 22.854C13.5011 22.6611 13.6095 22.3994 13.6095 22.1265C13.6095 21.5732 13.8293 21.0425 14.2206 20.6512C14.6119 20.2599 15.1426 20.0401 15.6959 20.0401H21.9263C22.4057 20.0401 22.8655 19.8497 23.2045 19.5107C23.5435 19.1717 23.7339 18.7119 23.7339 18.2325V5.77168C23.7339 5.29228 23.5435 4.83251 23.2045 4.49352C22.8655 4.15452 22.4057 3.96408 21.9263 3.96408Z" fill="white" stroke="white" stroke-width="0.5"/>
</svg>
