<svg width="25" height="25" viewBox="0 0 25 25" fill="none" xmlns="http://www.w3.org/2000/svg">
<g clip-path="url(#clip0_90_976)">
<g clip-path="url(#clip1_90_976)">
<path d="M8.43759 19.41H9.9793V17.3544H12.0349V15.8127H9.9793V13.7571H8.43759V15.8127H6.38199V17.3544H8.43759V19.41ZM13.5766 18.6392H18.7156V17.0975H13.5766V18.6392ZM13.5766 16.0697H18.7156V14.528H13.5766V16.0697ZM14.7072 12.164L16.1461 10.7251L17.585 12.164L18.6642 11.0848L17.2253 9.59453L18.6642 8.15561L17.585 7.07642L16.1461 8.51534L14.7072 7.07642L13.628 8.15561L15.0669 9.59453L13.628 11.0848L14.7072 12.164ZM6.63894 10.3654H11.7779V8.82368H6.63894V10.3654ZM5.35419 22.4934C4.7889 22.4934 4.3048 22.292 3.90191 21.8891C3.49901 21.4862 3.2979 21.0024 3.29859 20.4378V6.04862C3.29859 5.48333 3.50003 4.99923 3.90293 4.59633C4.30583 4.19343 4.78958 3.99233 5.35419 3.99301H19.7434C20.3087 3.99301 20.7928 4.19446 21.1957 4.59736C21.5986 5.00026 21.7997 5.48401 21.799 6.04862V20.4378C21.799 21.0031 21.5976 21.4872 21.1947 21.8901C20.7918 22.293 20.308 22.4941 19.7434 22.4934H5.35419ZM5.35419 20.4378H19.7434V6.04862H5.35419V20.4378Z" fill="white"/>
</g>
</g>
<defs>
<clipPath id="clip0_90_976">
<rect width="25" height="25" rx="12" fill="white"/>
</clipPath>
<clipPath id="clip1_90_976">
<rect width="24.6672" height="24.6672" fill="white" transform="translate(3.29858 3.1973)"/>
</clipPath>
</defs>
</svg>
