<svg width="31" height="31" viewBox="0 0 31 31" fill="none" xmlns="http://www.w3.org/2000/svg">
<g clip-path="url(#clip0_92_1043)">
<path d="M22.5213 22.748C23.3859 22.748 24.0838 22.0501 24.0838 21.1855C24.0838 20.3209 23.3859 19.623 22.5213 19.623C21.6567 19.623 20.9588 20.3209 20.9588 21.1855C20.9588 22.0501 21.6567 22.748 22.5213 22.748ZM24.0838 13.373H21.4797V15.9771H26.1255L24.0838 13.373ZM10.0213 22.748C10.8859 22.748 11.5838 22.0501 11.5838 21.1855C11.5838 20.3209 10.8859 19.623 10.0213 19.623C9.15674 19.623 8.45882 20.3209 8.45882 21.1855C8.45882 22.0501 9.15674 22.748 10.0213 22.748ZM24.6047 11.8105L27.7297 15.9771V21.1855H25.6463C25.6463 22.9146 24.2505 24.3105 22.5213 24.3105C20.7922 24.3105 19.3963 22.9146 19.3963 21.1855H13.1463C13.1463 22.9146 11.7505 24.3105 10.0213 24.3105C8.29215 24.3105 6.89632 22.9146 6.89632 21.1855H4.81299V9.72715C4.81299 8.5709 5.74007 7.64381 6.89632 7.64381H21.4797V11.8105H24.6047ZM6.89632 9.72715V19.1021H7.68799C8.2609 18.4667 9.09424 18.0605 10.0213 18.0605C10.9484 18.0605 11.7817 18.4667 12.3547 19.1021H19.3963V9.72715H6.89632ZM8.97965 14.4146L10.5422 12.8521L12.1047 14.4146L15.7505 10.7688L17.313 12.3313L12.1047 17.5396L8.97965 14.4146Z" fill="white"/>
</g>
<defs>
<clipPath id="clip0_92_1043">
<rect width="22.9167" height="22.9167" fill="white" transform="translate(4.81299 3.82437)"/>
</clipPath>
</defs>
</svg>
